<svg width="18" height="18" viewBox="0 0 18 18" fill="none" xmlns="http://www.w3.org/2000/svg">
<path d="M9.00068 12.349C8.5383 12.349 8.16347 12.7239 8.16347 13.1862C8.16347 13.6486 8.5383 14.0234 9.00068 14.0234C9.46306 14.0234 9.83789 13.6486 9.83789 13.1862C9.83789 12.7239 9.46306 12.349 9.00068 12.349Z" fill="#FF0000"/>
<path d="M8.37209 10.6744C8.37209 11.0212 8.65323 11.3023 9 11.3023C9.34677 11.3023 9.62791 11.0212 9.62791 10.6744H8.37209ZM9.62791 4.81395C9.62791 4.46717 9.34677 4.18605 9 4.18605C8.65323 4.18605 8.37209 4.46717 8.37209 4.81395H9.62791ZM16.7442 9C16.7442 13.277 13.277 16.7442 9 16.7442V18C13.9706 18 18 13.9706 18 9H16.7442ZM9 16.7442C4.72301 16.7442 1.25581 13.277 1.25581 9H0C0 13.9706 4.02944 18 9 18V16.7442ZM1.25581 9C1.25581 4.72301 4.72301 1.25581 9 1.25581V0C4.02944 0 0 4.02944 0 9H1.25581ZM9 1.25581C13.277 1.25581 16.7442 4.72301 16.7442 9H18C18 4.02944 13.9706 0 9 0V1.25581ZM9.62791 10.6744V4.81395H8.37209V10.6744H9.62791Z" fill="#FF0000"/>
</svg>
