<?xml version="1.0" encoding="UTF-8"?>
<svg xmlns="http://www.w3.org/2000/svg" width="55" height="55" viewBox="0 0 55 55" fill="none">
  <path d="M47.5118 3.67676H42.7471V8.44146C42.7471 9.39441 41.953 10.0297 41.1588 10.0297C40.3647 10.0297 39.5706 9.39441 39.5706 8.44146V3.67676H14.1588V8.44146C14.1588 9.39441 13.3647 10.0297 12.5706 10.0297C11.7765 10.0297 10.9824 9.39441 10.9824 8.44146V3.67676H6.21767C3.83532 3.67676 2.08826 5.74146 2.08826 8.44146V14.1591H52.9118V8.44146C52.9118 5.74146 50.053 3.67676 47.5118 3.67676ZM2.08826 17.4944V46.5591C2.08826 49.4179 3.83532 51.3238 6.37649 51.3238H47.6706C50.2118 51.3238 53.0706 49.2591 53.0706 46.5591V17.4944H2.08826ZM16.2235 44.1768H12.4118C11.7765 44.1768 11.1412 43.7003 11.1412 42.9062V38.9356C11.1412 38.3003 11.6177 37.665 12.4118 37.665H16.3824C17.0177 37.665 17.653 38.1415 17.653 38.9356V42.9062C17.4941 43.7003 17.0177 44.1768 16.2235 44.1768ZM16.2235 29.8826H12.4118C11.7765 29.8826 11.1412 29.4062 11.1412 28.6121V24.6415C11.1412 24.0062 11.6177 23.3709 12.4118 23.3709H16.3824C17.0177 23.3709 17.653 23.8473 17.653 24.6415V28.6121C17.4941 29.4062 17.0177 29.8826 16.2235 29.8826ZM28.9294 44.1768H24.9588C24.3235 44.1768 23.6883 43.7003 23.6883 42.9062V38.9356C23.6883 38.3003 24.1647 37.665 24.9588 37.665H28.9294C29.5647 37.665 30.2 38.1415 30.2 38.9356V42.9062C30.2 43.7003 29.7235 44.1768 28.9294 44.1768ZM28.9294 29.8826H24.9588C24.3235 29.8826 23.6883 29.4062 23.6883 28.6121V24.6415C23.6883 24.0062 24.1647 23.3709 24.9588 23.3709H28.9294C29.5647 23.3709 30.2 23.8473 30.2 24.6415V28.6121C30.2 29.4062 29.7235 29.8826 28.9294 29.8826ZM41.6353 44.1768H37.6647C37.0294 44.1768 36.3941 43.7003 36.3941 42.9062V38.9356C36.3941 38.3003 36.8706 37.665 37.6647 37.665H41.6353C42.2706 37.665 42.9059 38.1415 42.9059 38.9356V42.9062C42.9059 43.7003 42.4294 44.1768 41.6353 44.1768ZM41.6353 29.8826H37.6647C37.0294 29.8826 36.3941 29.4062 36.3941 28.6121V24.6415C36.3941 24.0062 36.8706 23.3709 37.6647 23.3709H41.6353C42.2706 23.3709 42.9059 23.8473 42.9059 24.6415V28.6121C42.9059 29.4062 42.4294 29.8826 41.6353 29.8826Z" fill="#4380F0"></path>
</svg>
