<?xml version="1.0" encoding="UTF-8"?>
<svg xmlns="http://www.w3.org/2000/svg" width="55" height="55" viewBox="0 0 55 55" fill="none">
  <g clip-path="url(#clip0_782_101)">
    <path d="M40.0622 10.6426H15.2714C12.8069 10.6426 10.8091 12.6404 10.8091 15.1049V39.8957C10.8091 42.3602 12.8069 44.358 15.2714 44.358H40.0622C42.5267 44.358 44.5245 42.3602 44.5245 39.8957V15.1049C44.5245 12.6404 42.5267 10.6426 40.0622 10.6426ZM40.8059 37.4166C40.8059 39.1965 39.363 40.6394 37.5831 40.6394H17.7505C15.9706 40.6394 14.5277 39.1965 14.5277 37.4166V17.584C14.5277 15.8041 15.9706 14.3612 17.7505 14.3612H37.5831C39.363 14.3612 40.8059 15.8041 40.8059 17.584V37.4166Z" fill="#4380F0"></path>
    <path d="M24.6809 28.3682H27.4079L26.0444 23.6914L24.6809 28.3682Z" fill="#4380F0"></path>
    <path d="M37.5831 15.8486H17.7505C16.7918 15.8486 16.0151 16.6253 16.0151 17.584V37.4166C16.0151 38.3748 16.7918 39.152 17.7505 39.152H37.5831C38.5413 39.152 39.3185 38.3748 39.3185 37.4166V17.584C39.3185 16.6253 38.5413 15.8486 37.5831 15.8486ZM28.7848 31.7849C28.5529 31.7849 28.3621 31.7326 28.2938 31.5143L27.7351 29.6075H24.367L23.8083 31.5143C23.74 31.7326 23.5492 31.7995 23.3037 31.7995C22.9081 31.7995 22.4036 31.5467 22.4036 31.1918C22.4017 31.1492 22.406 31.1066 22.4172 31.0654L25.1306 22.2284C25.2395 21.9011 25.6351 21.7364 26.0443 21.7364C26.4529 21.7364 26.8621 21.8996 26.9715 22.2269L29.6709 31.062C29.6869 31.1013 29.6961 31.1429 29.6985 31.185C29.6985 31.5259 29.1939 31.7849 28.7848 31.7849ZM32.2531 31.3075C32.2531 31.6213 31.8774 31.7849 31.5094 31.7849C31.1549 31.7849 30.7656 31.6213 30.7656 31.3075V22.2816C30.7656 21.9548 31.1549 21.8183 31.5094 21.8183C31.8774 21.8183 32.2531 21.9548 32.2531 22.2816V31.3075Z" fill="#4380F0"></path>
    <path d="M30.3939 46.8145C29.9828 46.8145 29.6501 47.1476 29.6501 47.5582V53.7559C29.6501 54.167 29.9828 54.4996 30.3939 54.4996C30.8045 54.4996 31.1376 54.167 31.1376 53.7559V47.5582C31.1376 47.1476 30.8045 46.8145 30.3939 46.8145Z" fill="#4380F0"></path>
    <path d="M24.94 46.8145C24.5289 46.8145 24.1963 47.1476 24.1963 47.5582V53.7559C24.1963 54.167 24.5289 54.4996 24.94 54.4996C25.3506 54.4996 25.6837 54.167 25.6837 53.7559V47.5582C25.6837 47.1476 25.3506 46.8145 24.94 46.8145Z" fill="#4380F0"></path>
    <path d="M19.6099 46.8145C19.1989 46.8145 18.8662 47.1476 18.8662 47.5582V53.7559C18.8662 54.167 19.1989 54.4996 19.6099 54.4996C20.0205 54.4996 20.3537 54.167 20.3537 53.7559V47.5582C20.3537 47.1476 20.0205 46.8145 19.6099 46.8145Z" fill="#4380F0"></path>
    <path d="M35.7239 46.8145C35.3129 46.8145 34.9802 47.1476 34.9802 47.5582V53.7559C34.9802 54.167 35.3129 54.4996 35.7239 54.4996C36.1345 54.4996 36.4677 54.167 36.4677 53.7559V47.5582C36.4677 47.1476 36.1345 46.8145 35.7239 46.8145Z" fill="#4380F0"></path>
    <path d="M24.1963 1.24372V7.44142C24.1963 7.85201 24.5289 8.18514 24.94 8.18514C25.3506 8.18514 25.6837 7.85201 25.6837 7.44142V1.24372C25.6837 0.833126 25.3506 0.5 24.94 0.5C24.5289 0.5 24.1963 0.833126 24.1963 1.24372Z" fill="#4380F0"></path>
    <path d="M29.6501 1.24372V7.44142C29.6501 7.85201 29.9828 8.18514 30.3939 8.18514C30.8045 8.18514 31.1376 7.85201 31.1376 7.44142V1.24372C31.1376 0.833126 30.8045 0.5 30.3939 0.5C29.9828 0.5 29.6501 0.833126 29.6501 1.24372Z" fill="#4380F0"></path>
    <path d="M35.7239 8.18514C36.1345 8.18514 36.4677 7.85201 36.4677 7.44142V1.24372C36.4677 0.833126 36.1345 0.5 35.7239 0.5C35.3129 0.5 34.9802 0.833126 34.9802 1.24372V7.44142C34.9802 7.85201 35.3129 8.18514 35.7239 8.18514Z" fill="#4380F0"></path>
    <path d="M18.8662 1.24372V7.44142C18.8662 7.85201 19.1989 8.18514 19.6099 8.18514C20.0205 8.18514 20.3537 7.85201 20.3537 7.44142V1.24372C20.3537 0.833126 20.0205 0.5 19.6099 0.5C19.1989 0.5 18.8662 0.833126 18.8662 1.24372Z" fill="#4380F0"></path>
    <path d="M53.9229 24.0293H47.7252C47.3146 24.0293 46.9814 24.3619 46.9814 24.773C46.9814 25.1836 47.3146 25.5167 47.7252 25.5167H53.9229C54.3339 25.5167 54.6666 25.1836 54.6666 24.773C54.6666 24.3619 54.3339 24.0293 53.9229 24.0293Z" fill="#4380F0"></path>
    <path d="M53.9229 29.4834H47.7252C47.3146 29.4834 46.9814 29.816 46.9814 30.2271C46.9814 30.6377 47.3146 30.9708 47.7252 30.9708H53.9229C54.3339 30.9708 54.6666 30.6377 54.6666 30.2271C54.6666 29.816 54.3339 29.4834 53.9229 29.4834Z" fill="#4380F0"></path>
    <path d="M53.9229 34.8135H47.7252C47.3146 34.8135 46.9814 35.1461 46.9814 35.5572C46.9814 35.9678 47.3146 36.3009 47.7252 36.3009H53.9229C54.3339 36.3009 54.6666 35.9678 54.6666 35.5572C54.6666 35.1461 54.3339 34.8135 53.9229 34.8135Z" fill="#4380F0"></path>
    <path d="M53.9229 18.6992H47.7252C47.3146 18.6992 46.9814 19.0319 46.9814 19.4429C46.9814 19.8535 47.3146 20.1867 47.7252 20.1867H53.9229C54.3339 20.1867 54.6666 19.8535 54.6666 19.4429C54.6666 19.0319 54.3339 18.6992 53.9229 18.6992Z" fill="#4380F0"></path>
    <path d="M7.60816 29.4834H1.41047C0.999874 29.4834 0.666748 29.816 0.666748 30.2271C0.666748 30.6377 0.999874 30.9708 1.41047 30.9708H7.60816C8.01876 30.9708 8.35189 30.6377 8.35189 30.2271C8.35189 29.816 8.01876 29.4834 7.60816 29.4834Z" fill="#4380F0"></path>
    <path d="M7.60816 24.0293H1.41047C0.999874 24.0293 0.666748 24.3619 0.666748 24.773C0.666748 25.1836 0.999874 25.5167 1.41047 25.5167H7.60816C8.01876 25.5167 8.35189 25.1836 8.35189 24.773C8.35189 24.3619 8.01876 24.0293 7.60816 24.0293Z" fill="#4380F0"></path>
    <path d="M7.60816 18.6992H1.41047C0.999874 18.6992 0.666748 19.0319 0.666748 19.4429C0.666748 19.8535 0.999874 20.1867 1.41047 20.1867H7.60816C8.01876 20.1867 8.35189 19.8535 8.35189 19.4429C8.35189 19.0319 8.01876 18.6992 7.60816 18.6992Z" fill="#4380F0"></path>
    <path d="M7.60816 34.8135H1.41047C0.999874 34.8135 0.666748 35.1461 0.666748 35.5572C0.666748 35.9678 0.999874 36.3009 1.41047 36.3009H7.60816C8.01876 36.3009 8.35189 35.9678 8.35189 35.5572C8.35189 35.1461 8.01876 34.8135 7.60816 34.8135Z" fill="#4380F0"></path>
  </g>
  <defs>
    <clipPath id="clip0_782_101">
      <rect width="54" height="54" fill="white" transform="translate(0.666748 0.5)"></rect>
    </clipPath>
  </defs>
</svg>
