<?xml version="1.0" encoding="UTF-8"?>
<svg xmlns="http://www.w3.org/2000/svg" width="54" height="55" viewBox="0 0 54 55" fill="none">
  <g clip-path="url(#clip0_782_168)">
    <path d="M46.3895 45.3336C46.3895 45.3336 7.67061 45.3179 7.52473 45.2883C6.50352 45.0806 5.73271 44.1822 5.73271 43.1087V20.167H0V51.0158H46.3895V45.3336Z" fill="#4380F0"></path>
    <path d="M0 11.5283H5.73227V18.3044H0V11.5283Z" fill="#4380F0"></path>
    <path d="M7.61096 12.623V43.4719H48.2677H54V12.623H7.61096ZM25.5956 30.7348L25.0425 32.3535L15.8573 28.5064V26.8246L25.0425 22.9767L25.5956 24.5962L18.0473 27.666L25.5956 30.7348ZM28.2329 37.8415H26.2127L33.4203 17.4887H35.3983L28.2329 37.8415ZM45.7537 28.506L36.5685 32.3531L36.0154 30.7344L43.5636 27.6647L36.0154 24.5949L36.5685 22.9754L45.7537 26.8233V28.506Z" fill="#4380F0"></path>
    <path d="M54 10.7595V3.9834H7.61096V10.7595H54ZM19.9844 6.25575H23.6529C23.841 6.25575 24.0243 6.33762 24.1415 6.48482C24.7568 7.25824 24.2142 8.11875 23.4695 8.11875H19.801C19.6129 8.11875 19.4296 8.03688 19.3124 7.88969C18.6971 7.11627 19.2397 6.25575 19.9844 6.25575ZM12.049 6.25575H15.7175C15.9056 6.25575 16.089 6.33762 16.2061 6.48482C16.8214 7.25824 16.2788 8.11875 15.5342 8.11875H11.8656C11.6775 8.11875 11.4942 8.03688 11.377 7.88969C10.7617 7.11627 11.3043 6.25575 12.049 6.25575Z" fill="#4380F0"></path>
  </g>
  <defs>
    <clipPath id="clip0_782_168">
      <rect width="54" height="54" fill="white" transform="translate(0 0.5)"></rect>
    </clipPath>
  </defs>
</svg>
