<?xml version="1.0" encoding="UTF-8"?>
<svg xmlns="http://www.w3.org/2000/svg" width="55" height="55" viewBox="0 0 55 55" fill="none">
  <g clip-path="url(#clip0_782_137)">
    <path d="M0.345679 24.0259C0.228397 24.9698 0.964464 25.8031 1.91558 25.8031H8.35192C9.12448 25.8031 9.78408 25.245 9.91201 24.483C11.1507 17.106 16.9393 11.3174 24.3163 10.0787C25.0783 9.95081 25.6363 9.29121 25.6363 8.51854V2.08221C25.6363 1.13109 24.8031 0.395023 23.8592 0.512305C17.9245 1.24985 12.318 3.99404 8.07264 8.23926C3.82741 12.4846 1.08322 18.0911 0.345679 24.0259Z" fill="#4380F0"></path>
    <path d="M37.4136 41.7045C34.4109 43.8484 30.8901 44.9816 27.2317 44.9816C18.6232 44.9816 11.3393 38.8127 9.91212 30.3132C9.78418 29.5513 9.12458 28.9932 8.35202 28.9932H1.91558C0.964464 28.9932 0.228397 29.8264 0.345679 30.7702V30.7703C2.02696 44.2984 13.5854 54.4999 27.2317 54.4999C33.3109 54.4999 39.06 52.5267 43.8576 48.7937C44.6085 48.2094 44.6775 47.0992 44.0047 46.4264L39.4516 41.8733C38.9047 41.3266 38.0428 41.2552 37.4136 41.7045Z" fill="#4380F0"></path>
    <path d="M30.1466 10.0787C38.646 11.5059 44.8151 18.7898 44.8151 27.3983C44.8151 31.0567 43.6818 34.5774 41.5379 37.5802C41.0886 38.2095 41.16 39.0714 41.7068 39.6181L46.2601 44.1714C46.9329 44.8442 48.0429 44.7751 48.6272 44.0243L48.6273 44.0242C52.3602 39.2268 54.3333 33.4776 54.3333 27.3983C54.3333 13.752 44.1317 2.19358 30.6037 0.512305H30.6036C29.6597 0.395023 28.8264 1.13109 28.8264 2.08221V8.51854C28.8265 9.29121 29.3846 9.95081 30.1466 10.0787Z" fill="#4380F0"></path>
    <path d="M28.2852 16.5273H26.1746C25.3009 16.5273 24.5925 17.2357 24.5925 18.1094V36.5662H29.8672V18.1094C29.8672 17.2357 29.1589 16.5273 28.2852 16.5273Z" fill="#4380F0"></path>
    <path d="M33.0312 36.5663H36.7239C37.5976 36.5663 38.306 35.858 38.306 34.9843V22.3281C38.306 21.4544 37.5976 20.7461 36.7239 20.7461H33.0312V36.5663Z" fill="#4380F0"></path>
    <path d="M21.4284 24.9648H17.7397C16.866 24.9648 16.1577 25.6732 16.1577 26.5469V34.9843C16.1577 35.858 16.866 36.5663 17.7397 36.5663H21.4284V24.9648Z" fill="#4380F0"></path>
  </g>
  <defs>
    <clipPath id="clip0_782_137">
      <rect width="54" height="54" fill="white" transform="translate(0.333374 0.5)"></rect>
    </clipPath>
  </defs>
</svg>
