<?xml version="1.0" encoding="UTF-8"?>
<svg xmlns="http://www.w3.org/2000/svg" width="54" height="55" viewBox="0 0 54 55" fill="none">
  <path fill-rule="evenodd" clip-rule="evenodd" d="M27 3.3125C18.6233 3.3125 11.8125 10.184 11.8125 18.6598C11.8125 21.5308 13.077 25.0925 14.9175 28.6453C18.9698 36.4685 25.7197 44.348 25.7197 44.348C26.0392 44.7215 26.5072 44.9375 27 44.9375C27.4928 44.9375 27.9608 44.7215 28.2803 44.348C28.2803 44.348 35.0303 36.4685 39.0825 28.6453C40.923 25.0925 42.1875 21.5308 42.1875 18.6598C42.1875 10.184 35.3768 3.3125 27 3.3125ZM27 12.3125C23.5845 12.3125 20.8125 15.0845 20.8125 18.5C20.8125 21.9155 23.5845 24.6875 27 24.6875C30.4155 24.6875 33.1875 21.9155 33.1875 18.5C33.1875 15.0845 30.4155 12.3125 27 12.3125Z" fill="#4380F0"></path>
  <path fill-rule="evenodd" clip-rule="evenodd" d="M37.764 39.5978C39.5933 40.1468 41.1007 40.8263 42.1425 41.6228C42.8175 42.1358 43.3125 42.6376 43.3125 43.2496C43.3125 43.6096 43.1077 43.9358 42.8198 44.2621C42.3428 44.7998 41.634 45.2836 40.7565 45.7336C37.656 47.3198 32.643 48.3121 27 48.3121C21.357 48.3121 16.344 47.3198 13.2435 45.7336C12.366 45.2836 11.6572 44.7998 11.1802 44.2621C10.8922 43.9358 10.6875 43.6096 10.6875 43.2496C10.6875 42.6376 11.1825 42.1358 11.8575 41.6228C12.8993 40.8263 14.4068 40.1468 16.236 39.5978C17.127 39.3301 17.6333 38.3873 17.3655 37.4963C17.0977 36.6031 16.155 36.0968 15.264 36.3646C12.4785 37.2038 10.314 38.3536 9.0135 39.6248C7.8705 40.7386 7.3125 41.9851 7.3125 43.2496C7.3125 44.8291 8.20575 46.4041 10.0215 47.7181C13.2075 50.0221 19.6065 51.6871 27 51.6871C34.3935 51.6871 40.7925 50.0221 43.9785 47.7181C45.7943 46.4041 46.6875 44.8291 46.6875 43.2496C46.6875 41.9851 46.1295 40.7386 44.9865 39.6248C43.686 38.3536 41.5215 37.2038 38.736 36.3646C37.845 36.0968 36.9022 36.6031 36.6345 37.4963C36.3667 38.3873 36.873 39.3301 37.764 39.5978Z" fill="#4380F0"></path>
</svg>
