<?xml version="1.0" encoding="UTF-8"?>
<svg xmlns="http://www.w3.org/2000/svg" width="55" height="54" viewBox="0 0 55 54" fill="none">
  <path d="M21.7596 39.1659C20.5129 38.3638 19.3455 37.4267 18.2893 36.3706C17.2411 35.3144 16.2961 34.147 15.494 32.9003C15.4543 32.8447 15.4226 32.7812 15.3828 32.7256L4.51932 41.3656C3.12961 42.4694 2.27198 44.1212 2.16874 45.892C2.07345 47.6709 2.73255 49.4179 3.98727 50.6806C5.16255 51.8479 6.75874 52.5071 8.41049 52.5071C8.52963 52.5071 8.64874 52.4991 8.76785 52.4991C10.5467 52.3959 12.1984 51.5382 13.2943 50.1406L21.9343 39.2771C21.8787 39.2373 21.8152 39.2056 21.7596 39.1659ZM8.87904 48.3141C8.18021 49.0129 7.04461 49.0129 6.3458 48.3141C5.64698 47.6153 5.64698 46.4797 6.3458 45.7809C7.04461 45.0821 8.18021 45.0821 8.87904 45.7809C9.58579 46.4797 9.58579 47.6153 8.87904 48.3141Z" fill="#4380F0"></path>
  <path d="M47.2705 7.39685C39.3977 -0.476033 26.587 -0.476033 18.7141 7.39685C12.0419 14.0698 10.8992 24.6594 15.9982 32.5767C16.774 33.7862 17.6881 34.9202 18.7141 35.9462C19.7401 36.9722 20.8741 37.8862 22.0827 38.6621C25.399 40.795 29.1813 41.8353 32.9494 41.8353C38.185 41.8353 43.3913 39.8254 47.2705 35.9462C55.1418 28.0749 55.1418 15.2681 47.2705 7.39685ZM43.894 32.5727C37.8833 38.5834 28.1029 38.5834 22.0922 32.5727C16.0816 26.5621 16.0816 16.7817 22.0922 10.7711C28.1029 4.76037 37.8833 4.76037 43.894 10.7711C49.9046 16.7817 49.9046 26.5621 43.894 32.5727Z" fill="#4380F0"></path>
  <path d="M44.4717 21.497C44.2573 21.2103 39.2702 14.6191 32.9967 14.6191C26.7152 14.6191 21.7282 21.2103 21.5217 21.497C21.4423 21.5994 21.4423 21.7432 21.5217 21.8456C21.7282 22.1315 26.7152 28.7235 32.9967 28.7235C39.2702 28.7235 44.2573 22.1315 44.4717 21.8456C44.5432 21.7432 44.5432 21.5994 44.4717 21.497ZM32.9888 26.2625C30.5072 26.2625 28.4933 24.2478 28.4933 21.767C28.4933 19.2854 30.5072 17.2707 32.9888 17.2707C35.4799 17.2707 37.4946 19.2854 37.4946 21.767C37.4946 24.2478 35.4799 26.2625 32.9888 26.2625Z" fill="#4380F0"></path>
  <path d="M34.3862 21.6954C33.6556 21.6954 33.06 21.0998 33.06 20.3693C33.06 20.1151 33.1315 19.869 33.2665 19.6625C33.1792 19.6466 33.0839 19.6387 32.9965 19.6387C31.8212 19.6387 30.8604 20.5916 30.8604 21.7669C30.8604 22.9422 31.8212 23.8952 32.9965 23.8952C34.1639 23.8952 35.1248 22.9422 35.1248 21.7669C35.1248 21.6716 35.1168 21.5843 35.1009 21.489C34.8865 21.624 34.6403 21.6954 34.3862 21.6954Z" fill="#4380F0"></path>
  <path d="M34.3861 19.6387C34.1955 19.6387 34.0208 19.7181 33.8858 19.8372C33.7429 19.9722 33.6555 20.1628 33.6555 20.3693C33.6555 20.7743 33.9891 21.0999 34.3861 21.0999C34.5926 21.0999 34.7911 21.0117 34.9261 20.8696C35.0452 20.7425 35.1246 20.5678 35.1246 20.3693C35.1246 19.9643 34.7911 19.6387 34.3861 19.6387Z" fill="#4380F0"></path>
</svg>
