<?xml version="1.0" encoding="UTF-8"?>
<svg xmlns="http://www.w3.org/2000/svg" width="55" height="55" viewBox="0 0 55 55" fill="none">
  <g clip-path="url(#clip0_874_2291)">
    <path d="M27.5 12.0596C18.9861 12.0596 12.0597 18.9861 12.0597 27.4999C12.0597 36.0136 18.9861 42.9402 27.5 42.9402C36.0139 42.9402 42.9403 36.0137 42.9403 27.4999C42.9403 18.986 36.0139 12.0596 27.5 12.0596ZM14.796 27.4999L20.8599 21.4362L23.0972 23.6736L19.2706 27.5L23.0973 31.327L20.8599 33.5642L14.796 27.4999ZM25.6527 35.2049L22.7851 33.8677L29.3474 19.7948L32.215 21.132L25.6527 35.2049ZM34.1401 33.5643L31.9028 31.3269L35.7294 27.5005L31.9027 23.6735L34.1401 21.4363L40.204 27.5006L34.1401 33.5643Z" fill="#4380F0"></path>
    <path d="M53.1263 23.9533C51.7281 23.7785 50.5753 22.7736 50.2114 21.4123C49.848 20.0525 50.344 18.6079 51.4663 17.7584L52.5701 16.9228L49.1951 11.077L47.9153 11.617C46.6184 12.1642 45.1193 11.8711 44.124 10.8758C43.1287 9.8805 42.8356 8.38147 43.3828 7.08452L43.9228 5.80466L38.077 2.42966L37.2414 3.53349C36.3919 4.65579 34.9474 5.15191 33.5876 4.78836C32.2263 4.42449 31.2214 3.27172 31.0466 1.87352L30.875 0.5H24.125L23.9533 1.87373C23.7785 3.27193 22.7736 4.4247 21.4123 4.78857C20.0525 5.15202 18.608 4.65589 17.7585 3.5337L16.9229 2.42987L11.0771 5.80487L11.6171 7.08473C12.1643 8.38157 11.8712 9.88071 10.8759 10.876C9.8806 11.8713 8.38157 12.1644 7.08462 11.6172L5.80476 11.0773L2.42976 16.923L3.5336 17.7586C4.65589 18.6081 5.15202 20.0526 4.78846 21.4126C4.4246 22.7738 3.27182 23.7787 1.87363 23.9535L0.5 24.125V30.875L1.87373 31.0467C3.27193 31.2215 4.4247 32.2264 4.78857 33.5877C5.15202 34.9475 4.656 36.3921 3.5337 37.2416L2.42987 38.0772L5.80487 43.923L7.08473 43.383C8.38157 42.8358 9.88071 43.1289 10.876 44.1242C11.8713 45.1195 12.1644 46.6185 11.6172 47.9155L11.0773 49.1953L16.923 52.5703L17.7586 51.4665C18.6081 50.3442 20.0526 49.8481 21.4124 50.2116C22.7737 50.5755 23.7786 51.7283 23.9534 53.1265L24.125 54.5H30.875L31.0467 53.1263C31.2215 51.7281 32.2264 50.5753 33.5877 50.2114C34.9475 49.848 36.392 50.3441 37.2415 51.4663L38.0771 52.5701L43.9229 49.1951L43.3829 47.9153C42.8357 46.6184 43.1288 45.1193 44.1241 44.124C45.1194 43.1287 46.6184 42.8356 47.9154 43.3828L49.1952 43.9228L52.5702 38.077L51.4664 37.2414C50.3441 36.3919 49.848 34.9474 50.2115 33.5874C50.5754 32.2262 51.7282 31.2213 53.1264 31.0465L54.5 30.875V24.125L53.1263 23.9533ZM27.5 46.1044C17.2415 46.1044 8.89563 37.7585 8.89563 27.5C8.89563 17.2415 17.2415 8.89563 27.5 8.89563C37.7585 8.89563 46.1044 17.2415 46.1044 27.5C46.1044 37.7585 37.7585 46.1044 27.5 46.1044Z" fill="#4380F0"></path>
  </g>
  <defs>
    <clipPath id="clip0_874_2291">
      <rect width="54" height="54" fill="white" transform="translate(0.5 0.5)"></rect>
    </clipPath>
  </defs>
</svg>
