<?xml version="1.0" encoding="UTF-8"?>
<svg xmlns="http://www.w3.org/2000/svg" width="54" height="55" viewBox="0 0 54 55" fill="none">
  <path d="M47.9806 22.0917C47.0356 19.8523 46.583 18.7247 45.5983 16.5329L47.6471 12.2288L42.2391 6.8526L37.9906 8.89348C35.775 7.94848 34.6474 7.49583 32.4318 6.55083L30.8277 2.08789H23.1724L21.5841 6.51907C19.3368 7.46407 18.2091 7.91671 16.0253 8.86171L11.7609 6.8526L6.35296 12.2288L8.39385 16.5091C7.44884 18.7247 6.9962 19.8523 6.0512 22.0679L1.58826 23.672V31.3273L6.01943 32.9155C6.96443 35.1629 7.41708 36.2905 8.36208 38.4744L6.35296 42.7388C9.0609 45.4705 9.0609 45.4705 11.7927 48.1785L16.0412 46.1376C18.2568 47.0826 19.3844 47.5352 21.6 48.52L23.1883 52.9511H30.8436L32.4318 48.52C34.6712 47.575 35.7988 47.1223 37.9906 46.1376L42.2391 48.1467C44.9709 45.4388 44.9709 45.4388 47.6788 42.707L45.638 38.4585C46.583 36.2429 47.0356 35.1152 48.0203 32.8997L52.4515 31.3114V23.672L47.9806 22.0917ZM27 41.2141C24.2857 41.2141 21.6323 40.4091 19.3755 38.9009C17.1187 37.3927 15.3598 35.2491 14.3215 32.7412C13.2831 30.2333 13.0118 27.4738 13.5419 24.8117C14.072 22.1496 15.3798 19.7045 17.2997 17.7857C19.2196 15.8669 21.6654 14.5606 24.3278 14.0321C26.9902 13.5035 29.7496 13.7764 32.2568 14.8162C34.7641 15.856 36.9067 17.6161 38.4136 19.8738C39.9205 22.1314 40.7239 24.7853 40.7224 27.4997C40.7203 31.1377 39.2736 34.626 36.7004 37.1977C34.1272 39.7694 30.638 41.2141 27 41.2141Z" fill="#4380F0"></path>
  <path d="M35.91 32.7646C34.9 34.1872 33.5641 35.3473 32.014 36.1479C30.4639 36.9484 28.7446 37.3662 27 37.3662C25.2553 37.3662 23.5361 36.9484 21.9859 36.1479C20.4358 35.3473 19.0999 34.1872 18.09 32.7646C18.8584 30.4193 20.5224 28.4727 22.7197 27.3488C23.976 28.2225 25.4697 28.6908 27 28.6908C28.5291 28.6915 30.0212 28.22 31.2723 27.3408C33.4758 28.4629 35.1438 30.4136 35.91 32.7646Z" fill="#4380F0"></path>
  <path d="M31.1929 21.8217C31.1945 22.6513 30.9499 23.4628 30.4901 24.1534C30.0303 24.8439 29.376 25.3826 28.61 25.7012C27.844 26.0197 27.0007 26.1039 26.1868 25.943C25.3729 25.7821 24.6251 25.3834 24.0379 24.7973C23.4507 24.2113 23.0506 23.4642 22.8882 22.6506C22.7257 21.837 22.8083 20.9936 23.1254 20.2269C23.4425 19.4603 23.9799 18.805 24.6696 18.3439C25.3593 17.8828 26.1703 17.6367 26.9999 17.6367C27.5502 17.6357 28.0952 17.7432 28.6039 17.953C29.1126 18.1629 29.5749 18.471 29.9643 18.8597C30.3538 19.2484 30.6627 19.7101 30.8736 20.2184C31.0844 20.7266 31.1929 21.2715 31.1929 21.8217Z" fill="#4380F0"></path>
</svg>
