<?xml version="1.0" encoding="UTF-8"?>
<svg xmlns="http://www.w3.org/2000/svg" width="59" height="59" viewBox="0 0 59 59" fill="none">
  <path d="M14.8551 16.2087C14.8551 14.2968 15.422 12.4278 16.4842 10.8382C17.5464 9.24848 19.0561 8.00947 20.8225 7.27783C22.5888 6.54618 24.5325 6.35475 26.4076 6.72774C28.2828 7.10073 30.0052 8.02139 31.3571 9.3733C32.709 10.7252 33.6297 12.4476 34.0027 14.3228C34.3757 16.1979 34.1842 18.1416 33.4526 19.9079C32.7209 21.6743 31.4819 23.184 29.8923 24.2462C28.3026 25.3084 26.4336 25.8753 24.5217 25.8753C21.958 25.8753 19.4992 24.8569 17.6864 23.044C15.8735 21.2312 14.8551 18.7724 14.8551 16.2087ZM36.3634 37.7412C37.1114 36.9776 38.071 36.4558 39.1184 36.2428C39.2167 36.2386 39.3141 36.2224 39.4084 36.1945C39.5396 36.1373 39.651 36.0424 39.7284 35.922C39.8058 35.8016 39.8458 35.661 39.8434 35.5178C39.8458 35.4226 39.8276 35.3279 39.7901 35.2403C39.7526 35.1527 39.6966 35.0743 39.6259 35.0103C38.3486 33.56 36.7583 32.4191 34.9751 31.6739C33.192 30.9287 31.2628 30.5986 29.3333 30.7087H19.6667C9.855 30.7087 6.375 37.8862 6.375 44.0487C6.375 49.5587 9.29917 52.4587 14.8333 52.4587H29.5992C29.7914 52.4587 29.9759 52.3823 30.1118 52.2463C30.2478 52.1104 30.3242 51.9259 30.3242 51.7337C30.3026 51.5351 30.2179 51.3488 30.0825 51.202C29.2002 50.2209 28.7173 48.9448 28.7292 47.6253C28.724 46.9107 28.8626 46.2022 29.1366 45.5421C29.4106 44.8821 29.8144 44.2838 30.3242 43.7828L36.3634 37.7412ZM54.7857 46.3445L48.744 40.3028C48.5769 40.1296 48.377 39.9915 48.1559 39.8964C47.9348 39.8013 47.697 39.7512 47.4563 39.749C47.2156 39.7468 46.977 39.7925 46.7542 39.8835C46.5314 39.9746 46.3289 40.1091 46.1587 40.2792C45.9884 40.4493 45.8537 40.6516 45.7625 40.8743C45.6713 41.097 45.6253 41.3356 45.6273 41.5763C45.6292 41.8169 45.6791 42.0548 45.774 42.276C45.8689 42.4972 46.0069 42.6972 46.1799 42.8645L50.9408 47.6253L46.1799 52.3862C46.0069 52.5534 45.8689 52.7535 45.774 52.9747C45.6791 53.1959 45.6292 53.4337 45.6273 53.6744C45.6253 53.915 45.6713 54.1537 45.7625 54.3764C45.8537 54.5991 45.9884 54.8014 46.1587 54.9715C46.3289 55.1416 46.5314 55.2761 46.7542 55.3671C46.977 55.4582 47.2156 55.5039 47.4563 55.5017C47.697 55.4995 47.9348 55.4494 48.1559 55.3543C48.377 55.2592 48.5769 55.121 48.744 54.9478L54.7857 48.9062C54.9542 48.7382 55.0879 48.5387 55.1793 48.319C55.2706 48.0993 55.3177 47.8638 55.318 47.6258C55.3182 47.3879 55.2715 47.1523 55.1806 46.9324C55.0897 46.7126 54.9563 46.5128 54.7881 46.3445H54.7857ZM41.494 40.3028C41.3257 40.1344 41.1258 40.0008 40.9058 39.9096C40.6859 39.8185 40.4501 39.7716 40.212 39.7716C39.9738 39.7716 39.7381 39.8185 39.5181 39.9096C39.2981 40.0008 39.0982 40.1344 38.9299 40.3028L32.8883 46.3445C32.7199 46.5126 32.5863 46.7123 32.4952 46.932C32.4041 47.1518 32.3572 47.3874 32.3572 47.6253C32.3572 47.8633 32.4041 48.0988 32.4952 48.3186C32.5863 48.5384 32.7199 48.7381 32.8883 48.9062L38.9299 54.9478C39.097 55.121 39.297 55.2592 39.5181 55.3543C39.7391 55.4494 39.977 55.4995 40.2176 55.5017C40.4583 55.5039 40.697 55.4582 40.9198 55.3671C41.1425 55.2761 41.345 55.1416 41.5152 54.9715C41.6855 54.8014 41.8202 54.5991 41.9114 54.3764C42.0027 54.1537 42.0486 53.915 42.0467 53.6744C42.0447 53.4337 41.9948 53.1959 41.8999 52.9747C41.805 52.7535 41.667 52.5534 41.494 52.3862L36.7332 47.6253L41.494 42.8645C41.6625 42.6965 41.7963 42.497 41.8876 42.2773C41.9789 42.0576 42.0261 41.8221 42.0263 41.5842C42.0265 41.3462 41.9798 41.1106 41.8889 40.8908C41.798 40.6709 41.6646 40.4711 41.4964 40.3028H41.494Z" fill="#4380F0"></path>
</svg>
