<?xml version="1.0" encoding="UTF-8"?>
<svg xmlns="http://www.w3.org/2000/svg" width="54" height="54" viewBox="0 0 54 54" fill="none">
  <path d="M45.6569 43.3677C48.5112 43.3677 50.8334 41.0535 50.8334 38.1994V7.55056C50.8334 4.87354 48.6579 2.69824 45.981 2.69824H8.01906C5.34204 2.69824 3.16675 4.87354 3.16675 7.55056V38.1994C3.16675 41.0535 5.48857 43.3677 8.343 43.3677H20.1817V46.3352H18.7916C17.5218 46.3352 16.4875 47.3605 16.4875 48.6303V50.3603C16.4875 50.8779 16.9106 51.3009 17.428 51.3009H36.5755C37.0928 51.3009 37.516 50.8779 37.516 50.3603V48.6303C37.516 47.3605 36.4817 46.3352 35.2119 46.3352H33.8182V43.3677H45.6569ZM27.0038 40.8606C26.271 40.8606 25.677 40.2745 25.677 39.5415C25.677 38.8009 26.271 38.2069 27.0038 38.2069C27.7289 38.2069 28.3229 38.8009 28.3229 39.5415C28.3229 40.2745 27.7289 40.8606 27.0038 40.8606ZM4.70961 35.7231V7.55056C4.70961 5.73009 6.19841 4.2411 8.01906 4.2411H45.981C47.8015 4.2411 49.2905 5.73009 49.2905 7.55056V35.7231H4.70961Z" fill="#4380F0"></path>
  <path d="M40.8355 10.335C39.8712 10.335 39.0612 10.9369 38.7449 11.7931H29.2872C28.971 10.9369 28.1532 10.335 27.1967 10.335C26.2401 10.335 25.4301 10.9369 25.1139 11.7931H15.255C14.9386 10.9369 14.1287 10.335 13.1644 10.335C11.9378 10.335 10.9426 11.3301 10.9426 12.5645C10.9426 13.7909 11.9378 14.7861 13.1644 14.7861C14.1287 14.7861 14.9386 14.1846 15.255 13.3359H20.7783C16.7438 15.4728 13.9359 19.6305 13.7044 24.4599H13.2108C12.771 24.4599 12.4085 24.8147 12.4085 25.2622V27.7614C12.4085 28.2014 12.771 28.5637 13.2108 28.5637H15.7179C16.1575 28.5637 16.5202 28.2014 16.5202 27.7614V25.2622C16.5202 24.8147 16.1575 24.4599 15.7179 24.4599H15.2473C15.548 18.8825 19.76 14.3232 25.1679 13.4824C25.4069 13.9917 25.8158 14.3925 26.3326 14.6162C26.3251 14.6317 26.3171 14.6396 26.3096 14.655L20.6241 26.0257C20.493 26.2958 20.5239 26.6276 20.7243 26.8589C20.9171 27.0981 21.2336 27.1983 21.5266 27.1135L27.0038 25.5552L32.4733 27.1135C32.8349 27.1941 33.1018 27.0785 33.2754 26.8589C33.4762 26.6276 33.5146 26.2958 33.3758 26.0257L27.7212 14.7168C28.3693 14.5703 28.9092 14.1303 29.1947 13.5442C34.4326 14.5394 38.4519 19.006 38.7449 24.4599H38.2822C37.8424 24.4599 37.4799 24.8147 37.4799 25.2622V27.7614C37.4799 28.2014 37.8424 28.5637 38.2822 28.5637H40.7893C41.2289 28.5637 41.5917 28.2014 41.5917 27.7614V25.2622C41.5917 24.8147 41.2289 24.4599 40.7893 24.4599H40.2878C40.0563 19.6305 37.2484 15.4728 33.2139 13.3359H38.7449C39.0612 14.1846 39.8712 14.7861 40.8355 14.7861C42.0621 14.7861 43.0573 13.7909 43.0573 12.5645C43.0573 11.3301 42.0621 10.335 40.8355 10.335Z" fill="#4380F0"></path>
</svg>
